<svg xmlns="http://www.w3.org/2000/svg" xmlns:xlink="http://www.w3.org/1999/xlink" viewBox="0 0 211.3418 182.66651"><defs><radialGradient id="radial-gradient" cx="-18600.88003" cy="7748.92805" fx="-18695.639249302665" r="122.17383" gradientTransform="matrix(-0.4755, 0, 0, 0.1056, -8786.61496, -654.7177)" gradientUnits="userSpaceOnUse"><stop offset="0" stop-color="#77838c"/><stop offset="0.0506" stop-color="#879199" stop-opacity="0.88469"/><stop offset="0.18625" stop-color="#abb3b8" stop-opacity="0.61489"/><stop offset="0.32777" stop-color="#caced2" stop-opacity="0.39175"/><stop offset="0.4747" stop-color="#e1e4e6" stop-opacity="0.21892"/><stop offset="0.62929" stop-color="#f2f3f4" stop-opacity="0.09618"/><stop offset="0.79665" stop-color="#fcfcfc" stop-opacity="0.02332"/><stop offset="1" stop-color="#fff" stop-opacity="0"/></radialGradient><radialGradient id="radial-gradient-2" cx="-11868.2569" cy="7748.92805" fx="-11963.015300161" r="122.17278" gradientTransform="translate(5792.90596 -654.7177) scale(0.4755 0.1056)" xlink:href="#radial-gradient"/><linearGradient id="Stainless_Steel" x1="-3344.24304" y1="168.42631" x2="-3456.37507" y2="247.13378" gradientTransform="matrix(-0.9952, 0.0974, 0.0974, 0.9952, -3287.85536, 160.05235)" gradientUnits="userSpaceOnUse"><stop offset="0" stop-color="#e5e2df"/><stop offset="0" stop-color="#d8d4d0"/><stop offset="0" stop-color="#ccc7c2"/><stop offset="0.06819" stop-color="#bdb9b4"/><stop offset="0.14607" stop-color="#a7a3a0"/><stop offset="0.52247" stop-color="#e0e1e2"/><stop offset="0.62461" stop-color="#d3d3d3"/><stop offset="0.81979" stop-color="#b2afac"/><stop offset="0.8764" stop-color="#a7a3a0"/><stop offset="1" stop-color="#d1d3d4"/><stop offset="1" stop-color="#a7a9ac"/></linearGradient><linearGradient id="linear-gradient" x1="85.165" y1="155.66754" x2="122.48809" y2="155.66754" gradientUnits="userSpaceOnUse"><stop offset="0.26667" stop-color="#c7c4c6"/><stop offset="0.52727" stop-color="#8a858a"/><stop offset="1" stop-color="#d2d3d4"/><stop offset="1" stop-color="#a8aaad"/></linearGradient><linearGradient id="linear-gradient-2" x1="170.2861" y1="51.77151" x2="59.9834" y2="51.77151" gradientUnits="userSpaceOnUse"><stop offset="0" stop-color="#0090d6"/><stop offset="0.05768" stop-color="#008bd2"/><stop offset="0.12762" stop-color="#007cc5"/><stop offset="0.2" stop-color="#0065b1"/><stop offset="0.50303" stop-color="#0c3e78"/></linearGradient><linearGradient id="linear-gradient-3" x1="79.41746" y1="138.48119" x2="156.84313" y2="138.48119" gradientUnits="userSpaceOnUse"><stop offset="0" stop-color="#e5e1df"/><stop offset="0" stop-color="#efeeee"/><stop offset="0" stop-color="#f2f2f2"/><stop offset="0.04903" stop-color="#e3e4e5"/><stop offset="0.14271" stop-color="#bcc0c2"/><stop offset="0.17416" stop-color="#aeb3b5"/><stop offset="0.33146" stop-color="#e2e4e5"/><stop offset="0.49438" stop-color="#f2f2f2"/><stop offset="0.82456" stop-color="#adb2b5"/><stop offset="0.91573" stop-color="#999fa4"/></linearGradient><linearGradient id="Bleu" x1="173.3418" y1="99.30837" x2="60.8701" y2="99.30837" gradientUnits="userSpaceOnUse"><stop offset="0" stop-color="#2bc4f3"/><stop offset="0.5" stop-color="#00aeee"/><stop offset="1" stop-color="#0095da"/></linearGradient><linearGradient id="Stainless_Steel-2" x1="-3431.57436" y1="200.11893" x2="-3397.52869" y2="200.11893" xlink:href="#Stainless_Steel"/><linearGradient id="Stainless_Steel-3" x1="-3391.28696" y1="294.26518" x2="-3304.90837" y2="294.26518" xlink:href="#Stainless_Steel"/><linearGradient id="Stainless_Steel-4" x1="-3451.04802" y1="218.90578" x2="-3373.42854" y2="218.90578" xlink:href="#Stainless_Steel"/><linearGradient id="Bleu-2" x1="-3430.50048" y1="258.3378" x2="-3309.52655" y2="258.3378" gradientTransform="matrix(-0.9952, 0.0974, 0.0974, 0.9952, -3287.85536, 160.05235)" xlink:href="#Bleu"/><linearGradient id="linear-gradient-4" x1="52.34492" y1="69.72242" x2="173.3418" y2="69.72242" xlink:href="#linear-gradient-2"/></defs><g style="isolation:isolate"><g id="Layer_1" data-name="Layer 1"><g style="opacity:0.8"><path d="M.0078,163.57081c0,7.127,26.0098,12.8994,58.0898,12.8994,32.0899,0,58.1016-5.7724,58.1016-12.8994,0-7.1245-26.0117-12.90281-58.1016-12.90281C26.0176,150.668.0078,156.44631.0078,163.57081Z" style="mix-blend-mode:multiply;fill:url(#radial-gradient)"/><path d="M207.6445,163.57081c0,7.127-26.0097,12.8994-58.0898,12.8994-32.0918,0-58.0996-5.7724-58.0996-12.8994,0-7.1245,26.0078-12.90281,58.0996-12.90281C181.6348,150.668,207.6445,156.44631,207.6445,163.57081Z" style="mix-blend-mode:multiply;fill:url(#radial-gradient-2)"/></g><path d="M135.0898,22.98931c3.0274,1.7285,3.5752,2.04,6.0283,3.6738,1.2081.875,2.836,2.0215,4.0118,2.9306-.3223-.2216-.7461-.5361-1.0733-.7509-.3877-.2539-36.3398-20.2149-76.7783,2.291l.2998-1.05081C97.9697,12.39361,127.6055,19.36821,135.0898,22.98931Z" style="fill:url(#Stainless_Steel)"/><path d="M109.2959,160.36621c4.2217-.99121,3.5937-2.9238,1.2324-4.3144-6.7051-3.9336-22.9902-4.2969-25.3574.4921l-.0059-.0117c4.4531-9.03121,35.8399-6.3183,37.292-.6504.1192.4639.0508,1.6338-3.1367,2.5293-2.2314.545-5.2207,1.2188-7.4736,1.6446-1.3448.2031-3.1328.4599-4.4844.61129C107.9443,160.58981,108.7246,160.502,109.2959,160.36621Z" style="fill:url(#linear-gradient)"/><path d="M59.9834,61.47851c35.2129-35.6221,92.8828-24.31151,100.874-14.958,1.5762,2.54,3.5938,5.9922,5.001,8.6397,2.916,6.54979,3.0889,6.9375,4.3974,11.1845l.0303.0928c-.1103-.2607-.2285-.6299-.3584-.8848-5.8271-11.208-72.5166-33.1718-109.1816-3.1748C60.4912,62.07711,60.2373,61.77541,59.9834,61.47851Z" style="fill:url(#linear-gradient-2)"/><path d="M141.083,147.99611c4.1709-6.6494-24.7969-17.8779-47.4746-12.7354C82.0957,137.86621,76.8066,145.71,81.5644,153.125c-12.9746-22.75879,35.8858-35.07709,65.3262-26.60159,3.6875,1.0625,11.9912,3.9678,9.4912,8.003l-3.2783,3.68159c-5.1475,4.999-5.4531,5.292-8.9814,7.99021-1.3321.92779-3.0752,2.21-4.4366,3.09479A6.545,6.545,0,0,0,141.083,147.99611Z" style="fill:url(#linear-gradient-3)"/><path d="M166.6328,116.91111a6.24917,6.24917,0,0,1-.3223,2.0635c.085-.1934.2041-.4414.2862-.6221a81.29294,81.29294,0,0,0,5.2021-15.7363c1.3106-7.8398,1.3389-7.99121,1.5195-12.3613l.0235-5.1172a3.76809,3.76809,0,0,0-.9502-2.1504C154.8701,66.68261,65.9824,73.00391,60.8701,123.625c4.4023-39.666,89.6455-28.874,104.1074-10.22269A6.6027,6.6027,0,0,1,166.6328,116.91111Z" style="fill:url(#Bleu)"/><path d="M112.6015,19.40231c-4.1679,5.8116,20.836,17.8438,32.2461,15.5098,3.4356-.706,3.5489-2.7412.2823-5.3184-1.1973-.8808-2.7862-2.0869-4.0118-2.9306-3.0292-1.9707-3.4189-2.2227-6.0283-3.6738,6.3272,3.4296,2.8457,4.8671,2.6983,4.92669-6.3594,2.50881-25.2657-4.87009-23.8018-9.29l.1748-.28619A4.78567,4.78567,0,0,0,112.6015,19.40231Z" style="fill:url(#Stainless_Steel-2)"/><path d="M26.6387,97.55661c.3779,2.1123.8496,4.94139,1.33,7.0293,12.8282,44.82909,66.7657,57.0176,79.3936,56.08109,1.3476-.165,3.1426-.39359,4.4844-.61129,2.2529-.4405,5.248-1.0938,7.4736-1.6446-13.9014,2.8994-85.9258-10.1523-93.0801-64.2968Z" style="fill:url(#Stainless_Steel-3)"/><path d="M110.9795,18.08111c-18.8379-.7227-29.7276,10.621-15.5293,26.3251,22.125,24.46979,75.7461,34.55079,74.9746,22.6729a4.62792,4.62792,0,0,0-.1387-.6416l-.0303-.0928c-2.3818-6.9345-2.4707-7.209-4.3974-11.1845-1.4238-2.6329-3.4082-6.1055-5.001-8.6397,3.4815,6.73049-13.1787,7.4277-31.2734,1.3106-24.2325-8.1885-37.7989-22.5606-26.4034-27.9512,1.5284-.7246,4.9961-1.8916,10.9805-1.5401C113.206,18.26071,111.9346,18.11621,110.9795,18.08111Z" style="fill:url(#Stainless_Steel-4)"/><path d="M59.208,25.92381c-2.1973,1.5518-5.0967,3.6651-7.1924,5.3487l-3.3516,3.0058C-7.5547,89.22851,70.0361,150.86911,129.1601,151.458a22.86016,22.86016,0,0,0,10.5254-2.165c1.3301-.92679,3.1446-2.11919,4.4366-3.09479,5.5488-4.5175,5.8789-4.7861,8.9814-7.99021l3.2783-3.68159c-19.2705,14.6953-128.7353-20.376-121.8349-72.8272,2.0058-15.2041,14.3935-28.6523,25.3232-36.1689Z" style="fill:url(#Bleu-2)"/><path d="M52.3486,51.11721c-.6953,45.8935,97.4717,84.748,113.5606,68.5234l.4013-.666.2862-.6221a80.39205,80.39205,0,0,0,5.2021-15.7363c.8916-4.3486.9151-4.6533,1.5195-12.3613.0049-1.5342.0166-3.583.0235-5.1172-1.8887,12.3496-70.0811,2.2119-99.6065-30.2061-19.3867-21.2939,1.7715-39.5302,32.3223-38.1377l.2256-.0293c-.7686-.1347-1.7324-.30661-3.6162-.4785C76.1826,13.877,52.6709,30.15331,52.3486,51.11721Z" style="fill:url(#linear-gradient-4)"/></g></g></svg>